<?xml version="1.0" encoding="UTF-8"?>
<svg id="Layer_1" data-name="Layer 1" xmlns="http://www.w3.org/2000/svg" viewBox="0 0 919.29 922.6">
  <defs>
    <style>
      .cls-1, .cls-2 {
        stroke: #231f20;
        stroke-miterlimit: 10;
        stroke-width: 4px;
      }

      .cls-1, .cls-3 {
        fill: #a2a6a3;
      }

      .cls-4 {
        fill: #715548;
      }

      .cls-5 {
        fill: #739fa2;
      }

      .cls-2, .cls-6 {
        fill: #656765;
      }

      .cls-7 {
        fill: #aa7448;
      }

      .cls-8 {
        fill: #231f20;
      }
    </style>
  </defs>
  <g>
    <path class="cls-6" d="m855.86,470.25c-.56-22.07-4.02-40.93-7.83-55.57l68.87-45.39-20.35-61.04h-82.96c-5.12-16.2-14.32-38.91-31.3-62.61-14.25-19.89-29.45-34.16-41.48-43.83l22.7-67.3-54.78-39.13c-18.26,13.04-36.52,26.09-54.78,39.13-18.83-10.54-42.39-21.82-70.43-31.3-26.18-8.86-50.14-14.08-70.43-17.22l-21.91-63.99h-63.04l-21.91,63.99c-20.29,3.13-44.26,8.36-70.43,17.22-28.04,9.49-51.61,20.77-70.43,31.3-18.26-13.04-36.52-26.09-54.78-39.13l-54.78,39.13,22.7,67.3c-12.03,9.67-27.23,23.94-41.48,43.83-16.98,23.7-26.18,46.41-31.3,62.61H22.73l-20.35,61.04,68.87,45.39c-3.8,14.64-7.26,33.49-7.83,55.57-.71,27.84,3.44,51.18,7.83,68.09-22.96,15.13-45.91,30.26-68.87,45.39l18.78,60.26h84.52c5.64,15.69,14.39,35.43,28.17,56.35,15.41,23.39,32.05,40.58,45.39,52.43-8.09,22.96-16.17,45.91-24.26,68.87l53.22,34.43,58.7-39.13c15.16,10.25,35.01,21.69,59.48,31.3,31.21,12.26,59.38,17.38,80.61,19.57,7.3,18.26,14.61,36.52,21.91,54.78h61.48c7.3-18.26,14.61-36.52,21.91-54.78,21.23-2.18,49.4-7.31,80.61-19.57,24.47-9.61,44.32-21.06,59.48-31.3l58.7,39.13,53.22-34.43c-8.09-22.96-16.17-45.91-24.26-68.87,13.35-11.86,29.98-29.04,45.39-52.43,13.78-20.92,22.54-40.66,28.17-56.35h84.52l18.78-60.26-68.87-45.39c4.39-16.91,8.53-40.25,7.83-68.09Z"/>
    <g>
      <path class="cls-1" d="m855.86,450.25c-.56-22.07-4.02-40.93-7.83-55.57l68.87-45.39-20.35-61.04h-82.96c-5.12-16.2-14.32-38.91-31.3-62.61-14.25-19.89-29.45-34.16-41.48-43.83l22.7-67.3-54.78-39.13c-18.26,13.04-36.52,26.09-54.78,39.13-18.83-10.54-42.39-21.82-70.43-31.3-26.18-8.86-50.14-14.08-70.43-17.22l-21.91-63.99h-63.04l-21.91,63.99c-20.29,3.13-44.26,8.36-70.43,17.22-28.04,9.49-51.61,20.77-70.43,31.3-18.26-13.04-36.52-26.09-54.78-39.13l-54.78,39.13,22.7,67.3c-12.03,9.67-27.23,23.94-41.48,43.83-16.98,23.7-26.18,46.41-31.3,62.61H22.73l-20.35,61.04,68.87,45.39c-3.8,14.64-7.26,33.49-7.83,55.57-.71,27.84,3.44,51.18,7.83,68.09-22.96,15.13-45.91,30.26-68.87,45.39l18.78,60.26h84.52c5.64,15.69,14.39,35.43,28.17,56.35,15.41,23.39,32.05,40.58,45.39,52.43-8.09,22.96-16.17,45.91-24.26,68.87l53.22,34.43,58.7-39.13c15.16,10.25,35.01,21.69,59.48,31.3,31.21,12.26,59.38,17.38,80.61,19.57,7.3,18.26,14.61,36.52,21.91,54.78h61.48c7.3-18.26,14.61-36.52,21.91-54.78,21.23-2.18,49.4-7.31,80.61-19.57,24.47-9.61,44.32-21.06,59.48-31.3l58.7,39.13,53.22-34.43c-8.09-22.96-16.17-45.91-24.26-68.87,13.35-11.86,29.98-29.04,45.39-52.43,13.78-20.92,22.54-40.66,28.17-56.35h84.52l18.78-60.26c-22.96-15.13-45.91-30.26-68.87-45.39,4.39-16.91,8.53-40.25,7.83-68.09Z"/>
      <circle class="cls-2" cx="459.64" cy="452.3" r="327.24"/>
    </g>
    <circle class="cls-5" cx="459.64" cy="464.07" r="313.48"/>
  </g>
  <g>
    <rect class="cls-7" x="404.25" y="148.59" width="110.78" height="656.39"/>
    <path class="cls-8" d="m513.04,150.59v652.39h-106.78V150.59h106.78m4-4h-114.78v660.39h114.78V146.59h0Z"/>
  </g>
  <g>
    <rect class="cls-3" x="222.73" y="187.65" width="473.82" height="188.84"/>
    <path class="cls-8" d="m694.55,189.65v184.84H224.73v-184.84h469.82m4-4H220.73v192.84h477.82v-192.84h0Z"/>
  </g>
  <polygon class="cls-6" points="530.64 374.49 578.58 326.56 694.73 326.56 694.73 374.49 530.64 374.49"/>
  <polygon class="cls-6" points="388.82 374.49 340.89 326.56 224.73 326.56 224.73 374.49 388.82 374.49"/>
  <polygon class="cls-6" points="388.82 189.65 340.89 237.59 224.73 237.59 224.73 189.65 388.82 189.65"/>
  <polygon class="cls-6" points="530.64 189.65 578.58 237.59 694.73 237.59 694.73 189.65 530.64 189.65"/>
  <rect class="cls-4" x="406.25" y="772.45" width="106.78" height="30.52"/>
</svg>